<?xml version="1.0" encoding="utf-8"?>
<!DOCTYPE svg PUBLIC "-//W3C//DTD SVG 1.1//EN" "http://www.w3.org/Graphics/SVG/1.1/DTD/svg11.dtd">
<svg width="200pt" height="200pt" viewBox="0 0 200 200" version="1.1" xmlns="http://www.w3.org/2000/svg">
<g>
<path fill="#fff" opacity="1.00" d=" M 78.28 0.00 L 121.35 0.00 C 135.55 0.54 150.22 -0.34 163.80 4.59 C 178.56 9.55 190.65 21.74 195.53 36.52 C 200.29 49.89 199.46 64.30 200.00 78.26 L 200.00 121.39 C 199.46 135.46 200.32 149.99 195.53 163.48 C 190.65 178.26 178.56 190.45 163.80 195.41 C 150.34 200.31 135.80 199.45 121.73 200.00 L 78.64 200.00 C 64.46 199.46 49.79 200.34 36.22 195.41 C 21.44 190.46 9.33 178.25 4.46 163.44 C -0.29 150.08 0.54 135.68 0.00 121.73 L 0.00 78.62 C 0.54 64.57 -0.32 50.06 4.45 36.59 C 9.32 21.76 21.45 9.53 36.26 4.57 C 49.70 -0.31 64.22 0.54 78.28 0.00 M 74.25 18.22 C 61.12 18.66 46.90 17.83 35.25 25.00 C 25.94 30.72 20.60 41.20 19.39 51.84 C 17.84 64.83 18.35 77.95 18.12 91.00 C 18.22 108.33 17.87 125.67 18.81 142.98 C 19.48 152.88 22.21 163.31 29.56 170.41 C 36.66 177.80 47.11 180.49 57.02 181.19 C 73.98 182.12 90.97 181.78 107.94 181.89 C 120.55 181.71 133.20 182.05 145.77 180.91 C 155.46 180.01 165.43 176.50 171.87 168.87 C 179.63 160.26 181.24 148.12 181.47 136.98 C 182.13 115.99 181.83 94.97 181.78 73.97 C 181.39 63.19 181.93 52.05 178.15 41.76 C 175.07 33.03 168.11 25.73 159.48 22.34 C 150.15 18.49 139.88 18.63 129.97 18.30 C 111.40 18.04 92.82 18.10 74.25 18.22 Z" />
<path fill="#fff" opacity="1.00" d=" M 148.44 35.62 C 154.78 32.50 163.12 36.41 164.95 43.19 C 167.21 49.97 162.10 57.84 155.01 58.58 C 148.57 59.69 141.98 54.55 141.38 48.08 C 140.67 42.95 143.71 37.67 148.44 35.62 Z" />
<path fill="#fff" opacity="1.00" d=" M 89.44 49.69 C 103.30 46.70 118.33 49.85 129.83 58.13 C 140.65 65.80 148.33 77.80 150.58 90.89 C 153.09 104.35 149.85 118.77 141.84 129.87 C 134.18 140.67 122.19 148.31 109.13 150.58 C 95.42 153.15 80.72 149.72 69.53 141.40 C 59.01 133.71 51.60 121.88 49.40 109.02 C 46.97 95.82 50.05 81.71 57.75 70.72 C 65.12 60.01 76.70 52.30 89.44 49.69 M 91.53 67.82 C 86.77 69.10 82.29 71.41 78.53 74.59 C 66.59 84.34 63.13 102.70 70.87 116.06 C 78.43 130.39 97.20 137.29 112.18 130.95 C 128.19 125.05 137.41 105.68 131.59 89.56 C 126.59 73.32 107.92 63.05 91.53 67.82 Z" />
</g>
</svg>
