<?xml version="1.0" encoding="UTF-8" ?>
<!DOCTYPE svg PUBLIC "-//W3C//DTD SVG 1.1//EN" "http://www.w3.org/Graphics/SVG/1.1/DTD/svg11.dtd">
<svg width="200pt" height="200pt" viewBox="0 0 200 200" version="1.1" xmlns="http://www.w3.org/2000/svg">
<g>
<path fill="#fff" opacity="1.00" d=" M 61.29 44.26 C 74.54 38.69 90.04 38.93 103.10 44.90 C 120.34 52.43 133.03 69.71 134.49 88.53 C 142.59 90.47 150.03 95.48 154.18 102.79 C 159.57 111.65 159.70 123.40 154.55 132.40 C 149.57 141.53 139.51 147.75 129.07 147.78 C 98.02 147.78 66.98 147.77 35.93 147.78 C 24.65 148.00 13.52 142.20 6.96 133.06 C 2.85 127.56 0.60 120.81 0.11 113.99 C -0.52 102.72 4.55 91.30 13.40 84.28 C 18.38 80.13 24.54 77.67 30.87 76.52 C 35.75 62.05 47.13 49.95 61.29 44.26 M 65.51 56.32 C 56.03 60.25 48.54 68.04 44.12 77.22 C 50.93 79.02 57.52 82.48 62.08 87.94 C 64.76 91.83 61.59 97.57 56.97 97.73 C 54.33 97.98 52.36 95.98 50.54 94.39 C 44.56 89.11 35.63 87.83 28.19 90.39 C 20.90 92.89 15.10 99.36 13.47 106.89 C 11.35 115.15 14.62 124.38 21.22 129.71 C 25.57 133.37 31.30 135.07 36.94 135.06 C 66.96 135.06 96.98 135.05 126.99 135.07 C 131.55 135.13 136.22 133.83 139.68 130.76 C 144.91 126.31 147.14 118.55 144.58 112.10 C 142.87 107.32 138.94 103.66 134.32 101.72 C 133.02 106.07 133.23 112.02 128.55 114.30 C 124.09 116.45 118.41 111.71 119.87 106.97 C 122.43 99.24 122.82 90.79 120.62 82.92 C 117.51 71.40 109.01 61.47 98.10 56.62 C 87.92 51.97 75.77 51.86 65.51 56.32 Z" />
<path fill="#fff" opacity="1.00" d=" M 176.76 80.99 C 177.69 76.21 184.65 74.32 187.69 78.23 C 195.23 88.57 199.19 101.29 200.00 113.99 L 200.00 121.32 C 199.41 133.80 195.49 146.14 188.53 156.53 C 187.31 158.34 185.35 159.86 183.05 159.65 C 178.12 160.05 174.66 153.63 177.77 149.73 C 189.42 132.46 190.54 108.83 180.46 90.59 C 179.00 87.50 175.84 84.73 176.76 80.99 Z" />
<path fill="#fff" opacity="1.00" d=" M 162.49 87.68 C 164.90 86.47 167.99 87.15 169.78 89.13 C 182.07 105.71 182.09 130.21 169.71 146.73 C 165.17 152.22 155.73 145.50 159.50 139.39 C 167.13 128.49 168.47 113.55 162.49 101.60 C 161.34 98.71 158.49 96.41 158.75 93.07 C 158.83 90.73 160.46 88.70 162.49 87.68 Z" />
</g>
</svg>
