<?xml version="1.0" encoding="UTF-8" ?>
<!DOCTYPE svg PUBLIC "-//W3C//DTD SVG 1.1//EN" "http://www.w3.org/Graphics/SVG/1.1/DTD/svg11.dtd">
<svg width="192pt" height="192pt" viewBox="0 0 192 192" version="1.1" xmlns="http://www.w3.org/2000/svg">
<g id="#ffffffff">
<path fill="#ffffff" opacity="1.00" d=" M 93.97 41.83 C 110.33 41.32 126.78 48.13 137.95 60.11 C 144.18 66.91 148.88 75.44 149.95 84.69 C 155.69 82.67 161.98 81.58 167.95 83.23 C 178.55 85.75 187.07 94.69 190.00 105.07 C 192.11 112.25 191.15 120.17 187.99 126.90 C 187.74 127.40 187.24 128.41 186.98 128.91 C 186.72 129.40 186.18 130.36 185.91 130.84 C 183.44 134.36 180.38 137.42 176.91 139.94 C 174.97 141.09 172.97 142.14 170.89 142.99 C 167.69 143.98 164.39 144.71 161.04 144.63 C 139.00 144.63 116.96 144.64 94.93 144.63 C 91.31 145.01 88.08 141.66 88.41 138.08 C 88.33 108.02 88.49 77.94 88.33 47.89 C 88.10 44.74 90.92 42.01 93.97 41.83 Z" />
<path fill="#ffffff" opacity="1.00" d=" M 66.48 50.14 C 66.83 45.10 74.02 43.30 77.13 46.92 C 79.21 48.85 78.65 51.87 78.57 54.40 C 78.65 82.30 78.60 110.21 78.59 138.12 C 78.97 142.00 74.98 145.49 71.17 144.49 C 69.20 144.14 68.02 142.45 66.93 140.94 C 66.51 138.99 66.45 137.00 66.49 135.02 C 66.64 106.72 66.31 78.43 66.48 50.14 Z" />
<path fill="#ffffff" opacity="1.00" d=" M 22.64 79.91 C 22.17 76.36 25.36 72.79 28.98 73.14 C 31.34 72.86 32.96 74.67 34.44 76.18 C 35.21 95.78 34.57 115.43 34.78 135.06 C 35.21 138.74 31.60 142.09 27.96 141.45 C 25.44 141.27 23.72 139.13 22.84 136.95 C 22.59 117.94 22.77 98.93 22.64 79.91 Z" />
<path fill="#ffffff" opacity="1.00" d=" M 44.68 86.09 C 44.17 82.83 46.74 79.63 49.99 79.33 C 51.90 79.01 53.57 80.16 55.25 80.86 C 56.04 82.80 56.84 84.81 56.73 86.95 C 56.67 104.25 56.79 121.55 56.67 138.85 C 56.70 142.57 52.71 145.45 49.17 144.46 C 46.39 143.74 44.46 140.88 44.63 138.04 C 44.64 120.72 44.55 103.41 44.68 86.09 Z" />
<path fill="#ffffff" opacity="1.00" d=" M 5.17 92.13 C 8.87 90.76 13.33 93.99 13.03 97.99 C 13.12 106.33 13.03 114.66 13.07 123.00 C 12.93 125.46 13.21 128.36 11.28 130.25 C 9.52 132.25 6.68 132.20 4.25 132.08 C 2.62 130.46 0.78 128.69 0.83 126.20 C 0.70 117.09 0.82 107.97 0.76 98.85 C 0.51 95.96 2.18 92.77 5.17 92.13 Z" />
</g>
</svg>
