<?xml version="1.0" encoding="UTF-8" ?>
<!DOCTYPE svg PUBLIC "-//W3C//DTD SVG 1.1//EN" "http://www.w3.org/Graphics/SVG/1.1/DTD/svg11.dtd">
<svg width="220pt" height="220pt" viewBox="0 0 220 220" version="1.1" xmlns="http://www.w3.org/2000/svg">
<g>
<path fill="#fff" opacity="1.00" d=" M 90.49 1.79 C 112.73 -2.10 136.19 0.71 156.61 10.45 C 180.41 21.53 199.91 41.46 210.49 65.48 C 221.90 90.97 222.95 120.88 213.44 147.13 C 204.96 170.83 188.04 191.38 166.41 204.27 C 149.76 214.21 130.43 219.88 110.99 219.78 C 83.53 220.37 56.15 209.67 35.96 191.13 C 17.65 174.54 5.24 151.58 1.43 127.16 C -2.08 104.41 1.48 80.55 12.10 60.07 C 27.29 29.86 57.17 7.61 90.49 1.79 M 83.30 58.35 C 69.26 59.03 55.20 60.86 41.69 64.85 C 38.65 65.62 35.98 67.76 34.77 70.69 C 32.19 76.07 35.36 83.16 41.08 84.82 C 44.97 86.22 48.85 84.26 52.62 83.41 C 67.44 79.76 82.78 78.61 98.00 78.79 C 122.45 79.54 147.34 83.49 169.40 94.51 C 173.58 96.51 177.77 100.22 182.74 98.74 C 189.01 97.52 192.56 89.87 189.75 84.21 C 187.30 79.22 181.49 77.59 176.98 75.04 C 147.93 61.31 115.16 57.18 83.30 58.35 M 78.40 96.47 C 67.90 97.32 57.44 99.13 47.36 102.22 C 43.63 103.27 40.99 107.13 41.38 110.99 C 41.38 116.21 47.08 120.41 52.07 118.89 C 60.52 116.40 69.19 114.69 77.97 113.93 C 104.30 111.70 131.51 115.88 155.25 127.77 C 159.91 129.96 164.64 134.72 170.16 132.12 C 176.38 129.68 177.04 120.13 171.26 116.83 C 143.61 100.18 110.35 94.12 78.40 96.47 M 74.61 132.86 C 66.60 133.80 58.62 135.08 50.80 137.00 C 45.69 138.23 44.22 145.57 48.23 148.85 C 51.85 152.19 56.77 149.60 60.92 149.02 C 90.57 143.02 123.26 144.33 149.72 160.31 C 152.63 162.50 157.21 162.68 159.70 159.77 C 162.78 156.74 161.90 150.99 158.06 149.00 C 133.35 133.70 103.12 129.57 74.61 132.86 Z" />
</g>
</svg>
