<?xml version="1.0" encoding="UTF-8" ?>
<!DOCTYPE svg PUBLIC "-//W3C//DTD SVG 1.1//EN" "http://www.w3.org/Graphics/SVG/1.1/DTD/svg11.dtd">
<svg width="200pt" height="200pt" viewBox="0 0 200 200" version="1.1" xmlns="http://www.w3.org/2000/svg">
<g>
<path fill="#fff" opacity="1.00" d=" M 97.41 0.00 L 99.62 0.00 C 105.16 0.18 110.67 1.67 115.45 4.51 C 127.88 11.58 134.47 27.25 130.73 41.07 C 127.18 56.32 111.60 67.49 96.00 65.80 C 77.94 64.84 63.32 46.83 66.04 28.96 C 67.63 13.34 81.72 0.36 97.41 0.00 Z" />
<path fill="#fff" opacity="1.00" d=" M 6.53 77.87 C 7.62 77.27 8.46 75.86 9.86 76.07 C 39.93 76.13 70.00 76.00 100.06 76.13 C 114.04 76.49 126.44 88.48 127.43 102.41 C 127.72 110.94 127.46 119.49 127.57 128.03 C 127.48 129.81 127.97 132.14 126.22 133.31 C 125.03 134.30 123.35 133.77 121.95 133.91 C 92.96 133.85 63.98 133.92 34.99 133.87 C 28.20 133.84 21.50 131.15 16.45 126.63 C 9.54 120.56 5.86 111.13 6.43 102.00 C 6.50 93.96 6.31 85.91 6.53 77.87 Z" />
<path fill="#fff" opacity="1.00" d=" M 135.80 103.08 C 136.45 89.32 148.20 77.12 161.98 76.18 C 171.68 75.92 181.40 76.19 191.11 76.05 C 191.88 76.70 192.65 77.35 193.43 78.01 C 193.60 87.02 193.45 96.03 193.51 105.04 C 193.34 119.21 181.85 132.49 167.53 133.72 C 157.67 134.05 147.80 133.65 137.94 133.92 C 137.13 133.07 135.66 132.49 135.77 131.09 C 135.68 121.76 135.65 112.41 135.80 103.08 Z" />
<path fill="#fff" opacity="1.00" d=" M 72.06 142.10 C 89.40 142.30 106.75 142.14 124.09 142.18 C 126.22 141.84 127.80 143.99 127.55 145.97 C 127.49 155.17 127.70 164.39 127.43 173.59 C 126.50 187.49 114.28 199.30 100.40 200.00 L 72.25 200.00 C 71.31 199.25 69.90 198.50 70.13 197.05 C 70.09 179.70 70.07 162.35 70.14 145.00 C 69.97 143.67 71.31 142.96 72.06 142.10 Z" />
</g>
</svg>
