<?xml version="1.0" encoding="UTF-8" ?>
<!DOCTYPE svg PUBLIC "-//W3C//DTD SVG 1.1//EN" "http://www.w3.org/Graphics/SVG/1.1/DTD/svg11.dtd">
<svg width="256pt" height="256pt" viewBox="0 0 256 256" version="1.1" xmlns="http://www.w3.org/2000/svg">
<g>
<path fill="#fff" opacity="1.00" d=" M 43.58 35.65 C 63.53 16.13 90.24 3.59 118.03 0.90 C 130.40 0.15 142.93 0.32 155.10 2.90 C 180.13 8.19 203.88 20.87 221.10 39.94 C 245.43 65.16 257.18 101.28 254.00 136.02 C 252.08 159.42 243.02 182.09 228.63 200.62 C 211.96 222.41 187.85 238.41 161.23 245.12 C 145.87 249.20 129.78 249.65 114.03 248.01 C 98.62 245.99 83.80 240.76 70.03 233.66 C 47.21 241.04 24.37 248.36 1.50 255.57 C 8.40 233.62 16.15 211.94 23.20 190.04 C 23.76 188.11 22.01 186.55 21.38 184.85 C 7.99 160.60 2.88 131.85 7.72 104.53 C 11.81 78.48 24.48 53.86 43.58 35.65 M 58.47 50.46 C 41.08 67.11 30.01 90.05 27.36 113.94 C 26.97 122.54 27.22 131.17 27.83 139.75 C 30.74 156.03 36.53 172.04 46.61 185.30 C 42.59 198.09 37.51 210.57 34.17 223.57 C 47.20 219.40 60.21 215.16 73.25 211.00 C 92.56 223.59 116.05 229.88 139.05 227.66 C 162.98 225.76 186.01 215.00 202.98 198.05 C 220.25 181.07 231.11 157.86 233.35 133.77 C 233.60 125.89 233.66 117.97 232.73 110.13 C 229.68 89.85 220.76 70.34 206.65 55.36 C 190.29 36.74 166.80 24.86 142.25 21.92 C 136.83 21.56 131.40 21.30 125.96 21.28 C 100.92 22.36 76.39 32.90 58.47 50.46 Z" />
<path fill="#fff" opacity="1.00" d=" M 82.79 65.61 C 86.98 62.86 92.19 64.00 96.85 64.42 C 98.56 64.56 100.03 65.82 100.62 67.42 C 104.16 75.61 107.25 83.99 110.34 92.37 C 111.04 94.44 112.04 96.77 110.98 98.92 C 108.63 104.40 103.72 108.13 100.46 113.01 C 99.89 114.66 101.06 116.16 101.70 117.59 C 111.00 134.67 125.97 148.63 143.96 156.14 C 145.45 156.75 147.30 156.87 148.54 155.66 C 153.09 151.79 156.62 146.91 160.62 142.51 C 161.42 141.43 162.74 141.13 163.92 140.69 C 171.60 143.24 178.46 147.63 185.61 151.31 C 188.59 153.05 191.83 154.42 194.48 156.66 C 195.17 164.84 192.98 174.13 185.97 179.15 C 180.40 183.12 173.90 186.46 166.91 186.51 C 161.92 186.73 156.81 186.57 152.09 184.76 C 143.76 181.75 135.48 178.51 127.61 174.44 C 115.02 167.98 104.17 158.50 95.07 147.73 C 86.66 137.61 78.86 126.81 73.17 114.90 C 68.45 105.15 66.52 93.56 70.08 83.12 C 72.48 76.25 76.68 69.72 82.79 65.61 Z" />
</g>
</svg>
