<?xml version="1.0" encoding="UTF-8" ?>
<!DOCTYPE svg PUBLIC "-//W3C//DTD SVG 1.1//EN" "http://www.w3.org/Graphics/SVG/1.1/DTD/svg11.dtd">
<svg width="96pt" height="96pt" viewBox="0 0 96 96" version="1.1" xmlns="http://www.w3.org/2000/svg">
<g id="#ffffffff">
<path fill="#ffffff" opacity="1.00" d=" M 3.99 35.99 C 15.27 24.67 30.99 17.94 46.99 17.78 C 63.66 17.40 80.25 24.20 92.01 35.99 C 89.35 38.65 86.68 41.32 84.02 43.98 C 74.58 34.56 61.39 29.00 48.03 29.09 C 34.65 28.98 21.42 34.53 11.98 43.98 C 9.32 41.32 6.65 38.65 3.99 35.99 Z" />
<path fill="#ffffff" opacity="1.00" d=" M 19.98 51.99 C 27.37 44.68 37.62 40.32 48.04 40.43 C 58.43 40.34 68.64 44.71 76.01 51.99 C 73.35 54.65 70.69 57.31 68.03 59.97 C 62.94 55.05 56.09 51.91 48.97 51.75 C 41.20 51.39 33.51 54.57 27.97 59.97 C 25.31 57.31 22.65 54.65 19.98 51.99 Z" />
<path fill="#ffffff" opacity="1.00" d=" M 35.94 67.94 C 42.37 61.47 53.62 61.49 60.06 67.94 C 56.04 71.97 52.02 75.98 48.00 80.00 C 43.98 75.98 39.95 71.96 35.94 67.94 Z" />
</g>
</svg>
