<?xml version="1.0" encoding="UTF-8" ?>
<!DOCTYPE svg PUBLIC "-//W3C//DTD SVG 1.1//EN" "http://www.w3.org/Graphics/SVG/1.1/DTD/svg11.dtd">
<svg width="220pt" height="220pt" viewBox="0 0 220 220" version="1.1" xmlns="http://www.w3.org/2000/svg">
<g>
<path fill="#fff" opacity="1.00" d=" M 91.32 32.44 C 114.90 32.08 138.49 32.38 162.05 33.35 C 172.67 33.88 183.35 33.75 193.87 35.47 C 202.22 37.13 210.01 42.67 213.43 50.59 C 218.93 62.63 218.60 76.13 219.71 89.04 C 219.80 107.68 220.58 126.39 218.57 144.95 C 218.25 152.97 216.74 161.01 213.51 168.39 C 210.25 176.06 202.90 181.55 194.90 183.46 C 185.40 185.31 175.68 185.10 166.06 185.65 C 123.73 187.49 81.31 186.96 39.00 185.00 C 30.91 184.02 22.21 183.63 15.35 178.67 C 6.64 172.85 4.02 161.85 2.50 152.12 C 1.29 139.79 0.24 127.40 0.41 115.00 C 0.41 103.36 0.18 91.69 1.38 80.10 C 1.97 69.50 2.87 58.52 7.82 48.92 C 10.33 43.94 14.82 40.20 19.75 37.73 C 26.33 34.50 33.86 34.69 41.00 34.03 C 57.77 33.41 74.53 32.60 91.32 32.44 M 87.72 76.75 C 87.53 97.19 87.74 117.64 87.62 138.09 C 107.23 127.65 127.17 117.81 146.67 107.18 C 126.88 97.33 107.54 86.55 87.72 76.75 Z" />
</g>
</svg>
